<svg width="109" height="23" viewBox="0 0 109 23" fill="none" xmlns="http://www.w3.org/2000/svg">
    <path d="M24.0116 8.2386C23.6442 3.63404 19.8173 0 15.1669 0C10.4919 0 6.6466 3.63404 6.27309 8.2386C2.75232 8.60598 0 11.5512 0 15.1179C0 18.6846 2.74314 21.7094 6.24553 22.0094C6.31595 22.0155 6.3833 22.0124 6.4476 21.9971H8.61516C9.04072 21.9971 9.38361 21.6542 9.38361 21.2287C9.38361 20.8031 9.04072 20.4602 8.61516 20.4602H6.30983C6.28534 20.4602 6.26084 20.4603 6.23635 20.4633C3.58812 20.1663 1.53383 17.8457 1.53383 15.1179C1.53383 12.1512 3.98918 9.73569 7.01092 9.73569C7.43647 9.73569 7.77936 9.39279 7.77936 8.96724C7.77936 4.86784 11.0919 1.53689 15.1638 1.53689C19.2081 1.53689 22.5023 4.8709 22.5023 8.96724C22.5023 9.39279 22.8452 9.73569 23.2707 9.73569C26.1823 9.73569 28.4662 12.0992 28.4662 15.1179C28.4662 18.0018 25.8179 20.1786 23.2952 20.4633C23.2707 20.4603 23.2462 20.4602 23.2218 20.4602H20.9164C20.4909 20.4602 20.148 20.8031 20.148 21.2287C20.148 21.6542 20.4909 21.9971 20.9164 21.9971H23.0748C23.1238 22.0063 23.1728 22.0124 23.2218 22.0124C23.2432 22.0124 23.2646 22.0124 23.286 22.0094C26.5282 21.7338 30 18.8989 30 15.1179C30.0031 11.4961 27.4252 8.60598 24.0116 8.2386Z"
          fill="#2096F3"/>
    <path d="M14.9709 16.4986L12.4605 19.0091V8.15899C12.4605 7.73344 12.1176 7.39055 11.692 7.39055C11.2665 7.39055 10.9236 7.73344 10.9236 8.15899V18.7917L8.62742 16.4956C8.32739 16.1955 7.84061 16.1955 7.54057 16.4956C7.24054 16.7956 7.24054 17.2824 7.54057 17.5824L11.2573 21.296C11.4073 21.4461 11.6032 21.5226 11.8022 21.5226C11.9982 21.5226 12.1972 21.4461 12.3472 21.296L16.0639 17.5824C16.3639 17.2824 16.3639 16.7956 16.0639 16.4956C15.7577 16.1955 15.271 16.1955 14.9709 16.4986Z"
          fill="#2096F3"/>
    <path d="M21.9175 12.8431C22.2176 13.1432 22.7044 13.1432 23.0044 12.8431C23.3044 12.5431 23.3044 12.0563 23.0044 11.7563L19.2754 8.02735C18.9754 7.72732 18.4886 7.72732 18.1886 8.02735L17.962 8.25391L14.4596 11.7563C14.1596 12.0563 14.1596 12.5431 14.4596 12.8431C14.6097 12.9932 14.8056 13.0697 15.0046 13.0697C15.2005 13.0697 15.3995 12.9932 15.5496 12.8431L17.76 10.6327L17.8457 20.4664C17.8488 20.8889 18.1947 21.2287 18.6141 21.2287C18.6172 21.2287 18.6172 21.2287 18.6203 21.2287C19.0458 21.2256 19.3857 20.8766 19.3826 20.4541L19.2938 10.2164L21.9175 12.8431Z"
          fill="#2096F3"/>
    <path d="M41.3984 12.9912H42.9854C42.9346 13.5964 42.7653 14.1359 42.4775 14.6099C42.1898 15.0796 41.7856 15.4499 41.2651 15.7207C40.7446 15.9915 40.112 16.127 39.3672 16.127C38.7959 16.127 38.2817 16.0254 37.8247 15.8223C37.3677 15.6149 36.9762 15.3229 36.6504 14.9463C36.3245 14.5654 36.0749 14.1063 35.9014 13.5688C35.7321 13.0314 35.6475 12.4305 35.6475 11.7661V10.998C35.6475 10.3337 35.7342 9.73275 35.9077 9.19531C36.0854 8.65788 36.3394 8.19873 36.6694 7.81787C36.9995 7.43278 37.3952 7.13867 37.8564 6.93555C38.3219 6.73242 38.8446 6.63086 39.4243 6.63086C40.1606 6.63086 40.7827 6.76628 41.2905 7.03711C41.7983 7.30794 42.1919 7.68245 42.4712 8.16064C42.7547 8.63883 42.9282 9.18685 42.9917 9.80469H41.4048C41.3625 9.4069 41.2694 9.06624 41.1255 8.78271C40.9858 8.49919 40.7785 8.28337 40.5034 8.13525C40.2284 7.98291 39.8687 7.90674 39.4243 7.90674C39.0604 7.90674 38.743 7.97445 38.4722 8.10986C38.2013 8.24528 37.9749 8.44417 37.793 8.70654C37.611 8.96891 37.4735 9.29264 37.3804 9.67773C37.2915 10.0586 37.2471 10.4945 37.2471 10.9854V11.7661C37.2471 12.2316 37.2873 12.6548 37.3677 13.0356C37.4523 13.4123 37.5793 13.736 37.7485 14.0068C37.922 14.2777 38.1421 14.4871 38.4087 14.6353C38.6753 14.7834 38.9948 14.8574 39.3672 14.8574C39.82 14.8574 40.186 14.7855 40.4653 14.6416C40.7489 14.4977 40.9626 14.2882 41.1064 14.0132C41.2546 13.7339 41.3519 13.3932 41.3984 12.9912ZM49.5717 14.7368V16H44.9315V14.7368H49.5717ZM45.3759 6.75781V16H43.7826V6.75781H45.3759ZM57.1038 11.125V11.6328C57.1038 12.3311 57.0128 12.9574 56.8309 13.5117C56.6489 14.0661 56.3886 14.5379 56.0501 14.9272C55.7158 15.3166 55.3138 15.6149 54.844 15.8223C54.3743 16.0254 53.8538 16.127 53.2825 16.127C52.7155 16.127 52.1971 16.0254 51.7273 15.8223C51.2618 15.6149 50.8577 15.3166 50.5149 14.9272C50.1722 14.5379 49.9056 14.0661 49.7151 13.5117C49.5289 12.9574 49.4358 12.3311 49.4358 11.6328V11.125C49.4358 10.4268 49.5289 9.80257 49.7151 9.25244C49.9013 8.69808 50.1637 8.22624 50.5022 7.83691C50.845 7.44336 51.2492 7.14502 51.7146 6.94189C52.1844 6.73454 52.7028 6.63086 53.2698 6.63086C53.8411 6.63086 54.3616 6.73454 54.8313 6.94189C55.3011 7.14502 55.7052 7.44336 56.0437 7.83691C56.3823 8.22624 56.6425 8.69808 56.8245 9.25244C57.0107 9.80257 57.1038 10.4268 57.1038 11.125ZM55.5105 11.6328V11.1123C55.5105 10.596 55.4598 10.1411 55.3582 9.74756C55.2609 9.34977 55.1149 9.01758 54.9202 8.75098C54.7298 8.48014 54.4949 8.27702 54.2156 8.1416C53.9363 8.00195 53.6211 7.93213 53.2698 7.93213C52.9186 7.93213 52.6054 8.00195 52.3304 8.1416C52.0553 8.27702 51.8204 8.48014 51.6258 8.75098C51.4354 9.01758 51.2894 9.34977 51.1878 9.74756C51.0862 10.1411 51.0354 10.596 51.0354 11.1123V11.6328C51.0354 12.1491 51.0862 12.6061 51.1878 13.0039C51.2894 13.4017 51.4375 13.7381 51.6321 14.0132C51.831 14.284 52.068 14.4893 52.3431 14.6289C52.6181 14.7643 52.9313 14.832 53.2825 14.832C53.638 14.832 53.9533 14.7643 54.2283 14.6289C54.5034 14.4893 54.7361 14.284 54.9266 14.0132C55.117 13.7381 55.2609 13.4017 55.3582 13.0039C55.4598 12.6061 55.5105 12.1491 55.5105 11.6328ZM63.2331 6.75781H64.82V12.9341C64.82 13.6366 64.6677 14.2248 64.363 14.6987C64.0583 15.1727 63.6436 15.5303 63.1188 15.7715C62.5983 16.0085 62.0165 16.127 61.3732 16.127C60.7089 16.127 60.1164 16.0085 59.5959 15.7715C59.0754 15.5303 58.6649 15.1727 58.3645 14.6987C58.0682 14.2248 57.9201 13.6366 57.9201 12.9341V6.75781H59.507V12.9341C59.507 13.3784 59.5832 13.7445 59.7355 14.0322C59.8879 14.3158 60.1037 14.5252 60.383 14.6606C60.6623 14.7961 60.9924 14.8638 61.3732 14.8638C61.7541 14.8638 62.0821 14.7961 62.3571 14.6606C62.6364 14.5252 62.8522 14.3158 63.0046 14.0322C63.1569 13.7445 63.2331 13.3784 63.2331 12.9341V6.75781ZM68.588 16H66.6139L66.6266 14.7368H68.588C69.1593 14.7368 69.6375 14.612 70.0226 14.3623C70.4119 14.1126 70.7039 13.755 70.8985 13.2896C71.0974 12.8241 71.1969 12.2697 71.1969 11.6265V11.125C71.1969 10.6257 71.1397 10.1834 71.0255 9.79834C70.9155 9.41325 70.7504 9.08952 70.5304 8.82715C70.3146 8.56478 70.0479 8.36589 69.7306 8.23047C69.4174 8.09505 69.0556 8.02734 68.6451 8.02734H66.5758V6.75781H68.6451C69.2587 6.75781 69.8194 6.86149 70.3272 7.06885C70.8351 7.27197 71.273 7.56608 71.6412 7.95117C72.0136 8.33626 72.2993 8.79753 72.4981 9.33496C72.697 9.8724 72.7965 10.4733 72.7965 11.1377V11.6265C72.7965 12.2909 72.697 12.8918 72.4981 13.4292C72.2993 13.9666 72.0136 14.4279 71.6412 14.813C71.2688 15.1938 70.8245 15.488 70.3082 15.6953C69.7962 15.8984 69.2228 16 68.588 16ZM67.4962 6.75781V16H65.9029V6.75781H67.4962ZM79.0185 16H77.0443L77.057 14.7368H79.0185C79.5897 14.7368 80.0679 14.612 80.453 14.3623C80.8423 14.1126 81.1343 13.755 81.329 13.2896C81.5279 12.8241 81.6273 12.2697 81.6273 11.6265V11.125C81.6273 10.6257 81.5702 10.1834 81.456 9.79834C81.3459 9.41325 81.1809 9.08952 80.9608 8.82715C80.745 8.56478 80.4784 8.36589 80.161 8.23047C79.8479 8.09505 79.4861 8.02734 79.0756 8.02734H77.0062V6.75781H79.0756C79.6892 6.75781 80.2499 6.86149 80.7577 7.06885C81.2655 7.27197 81.7035 7.56608 82.0717 7.95117C82.4441 8.33626 82.7297 8.79753 82.9286 9.33496C83.1275 9.8724 83.227 10.4733 83.227 11.1377V11.6265C83.227 12.2909 83.1275 12.8918 82.9286 13.4292C82.7297 13.9666 82.4441 14.4279 82.0717 14.813C81.6993 15.1938 81.2549 15.488 80.7387 15.6953C80.2266 15.8984 79.6532 16 79.0185 16ZM77.9267 6.75781V16H76.3334V6.75781H77.9267ZM84.1766 6.75781H87.4456C88.1481 6.75781 88.7469 6.86361 89.242 7.0752C89.7371 7.28678 90.1159 7.59993 90.3782 8.01465C90.6448 8.42513 90.7781 8.93294 90.7781 9.53809C90.7781 9.99935 90.6935 10.4056 90.5242 10.7568C90.3549 11.1081 90.1159 11.4043 89.8069 11.6455C89.498 11.8825 89.1299 12.0666 88.7024 12.1978L88.22 12.4326H85.2811L85.2684 11.1694H87.471C87.8519 11.1694 88.1692 11.1017 88.4231 10.9663C88.6771 10.8309 88.8675 10.6468 88.9944 10.4141C89.1256 10.1771 89.1912 9.91048 89.1912 9.61426C89.1912 9.29264 89.1277 9.01335 89.0008 8.77637C88.8781 8.53516 88.6876 8.35107 88.4295 8.22412C88.1714 8.09294 87.8434 8.02734 87.4456 8.02734H85.7698V16H84.1766V6.75781ZM89.4515 16L87.2806 11.8486L88.95 11.8423L91.1526 15.9175V16H89.4515ZM93.4162 6.75781V16H91.8229V6.75781H93.4162ZM97.9142 14.3115L100.345 6.75781H102.104L98.7901 16H97.6031L97.9142 14.3115ZM95.6671 6.75781L98.0792 14.3115L98.4093 16H97.2159L93.9151 6.75781H95.6671ZM108.538 14.7368V16H103.631V14.7368H108.538ZM104.082 6.75781V16H102.488V6.75781H104.082ZM107.896 10.6172V11.8613H103.631V10.6172H107.896ZM108.506 6.75781V8.02734H103.631V6.75781H108.506Z"
          fill="black"/>
</svg>
